<?xml version="1.0" encoding="utf-8"?>
<svg viewBox="0 0 100 100" fill="none" xmlns="http://www.w3.org/2000/svg">
  <!-- Blue head circle -->
  <circle cx="50" cy="21" r="9.5" fill="#2563eb" />

  <!-- Green arm (left) -->
  <path d="M 46 32 C 34 23, 24 25, 24 35 C 24 43, 34 44, 44 38 C 47 36, 47 34, 46 32 Z" fill="#22c55e" />

  <!-- Yellow arm (right & diagonal body) -->
  <path d="M 48 32 C 58 23, 70 17, 77 18 C 62 27, 52 42, 50 52 C 48 62, 51 72, 55 78 C 51 68, 48 56, 48 32 Z" fill="#eab308" />

  <!-- Orange-Red bottom loop -->
  <path d="M 50 52 C 46 62, 38 70, 39 76 C 41 81, 48 81, 52 76 C 53 70, 51 60, 50 52 Z" fill="#f97316" />
</svg>
