<?xml version="1.0" encoding="UTF-8"?>
<svg xmlns="http://www.w3.org/2000/svg" width="182" height="127" viewBox="0 0 182 127" fill="none">
  <g clip-path="url(#clip0_3077_10469)">
    <path d="M169.58 11.2218C117.939 -3.72953 65.059 -3.72953 12.3856 11.2218C4.85104 13.2245 0 18.5766 0 24.7919V69.3006C0 75.516 4.85104 80.8681 12.3512 82.8363C38.4299 90.3292 64.7149 94.0584 91 94.0584C117.251 94.0584 143.536 90.3292 169.614 82.8363C177.149 80.8335 182.034 75.516 182.034 69.2661V24.7919C182.034 18.5421 177.149 13.2245 169.614 11.2218H169.58ZM91.3784 5.42082C96.6767 5.42082 101.941 5.59347 107.205 5.90424C96.5047 5.45535 85.7705 5.45535 75.0019 5.90424C80.4722 5.59347 85.9425 5.42082 91.3784 5.42082ZM75.1739 88.1538C85.7361 88.6027 96.2983 88.6027 106.86 88.1538C96.2983 88.7754 85.7361 88.7754 75.1739 88.1538Z" fill="white"></path>
    <path d="M168.858 13.8462C117.698 -0.966975 65.2999 -0.966975 13.0738 13.8462C6.74333 15.5382 2.68359 19.8199 2.68359 24.7921V69.3008C2.68359 74.2731 6.74333 78.5548 13.0738 80.2467C64.7494 95.0599 117.147 95.0599 168.892 80.2467C175.188 78.5893 179.316 74.2731 179.316 69.3008V24.7921C179.316 19.8199 175.222 15.5037 168.892 13.8462M175.154 69.1627C175.154 74.1005 170.887 77.3462 165.864 78.2785C115.943 88.3612 66.0223 88.3612 16.1358 78.2785C11.1471 77.3117 6.91535 74.1005 6.91535 69.1627V24.8957C6.91535 19.958 11.1815 16.7467 16.1358 15.7799C66.0223 5.86989 115.943 5.59366 165.864 15.7799C170.922 16.7467 175.154 19.9925 175.154 24.8957V69.1282V69.1627Z" fill="#00559D"></path>
    <path d="M103.902 58.3897C103.558 58.804 103.179 59.0458 102.938 59.0458C102.698 59.0458 102.491 58.9422 102.354 58.7695C102.25 58.5623 102.182 58.2861 102.182 57.9408C102.182 57.8027 102.182 57.63 102.182 57.4229C102.216 57.2157 102.285 56.9049 102.354 56.5596L106.895 38.7769C104.831 39.1912 102.904 39.502 101.012 39.7782C99.154 40.0545 97.3994 40.2271 95.7135 40.3652V41.6428H96.1264C96.8145 41.6428 97.3305 41.7464 97.709 41.9881C98.053 42.2298 98.2251 42.5751 98.2251 43.0585C98.2251 43.3002 98.1907 43.7146 98.053 44.2325C97.9498 44.785 97.7434 45.4756 97.5026 46.3388L95.4727 53.6937C95.0942 54.9367 94.819 56.0762 94.647 57.1121C94.4406 58.148 94.3373 58.8731 94.3718 59.322C94.3718 60.7377 94.6814 61.7391 95.4039 62.5333C96.092 63.2584 97.1241 63.6382 98.4315 63.6382C99.9453 63.6382 101.356 63.0512 102.698 61.9462C104.039 60.8068 105.45 58.9767 106.964 56.4215L105.76 55.5237C104.865 57.0085 104.246 58.0099 103.833 58.4242" fill="#00559D"></path>
    <path d="M104.452 26.4839C103.282 26.4839 102.319 26.9328 101.493 27.796C100.668 28.6938 100.289 29.7642 100.289 31.0073C100.289 32.2503 100.702 33.2862 101.493 34.1495C102.319 35.0472 103.317 35.4961 104.452 35.4961C105.587 35.4961 106.551 35.0472 107.376 34.1495C108.202 33.2862 108.581 32.2158 108.581 31.0073C108.581 29.7987 108.202 28.6938 107.376 27.796C106.551 26.9328 105.587 26.4839 104.452 26.4839Z" fill="#00559D"></path>
    <path d="M147.389 56.9046C146.391 58.4584 145.565 59.218 144.912 59.218C144.671 59.218 144.499 59.1145 144.361 58.9073C144.258 58.7001 144.155 58.4239 144.155 58.0786C144.155 57.6987 144.464 56.3866 145.049 54.2458V54.1767L148.971 39.8469H142.125L141.402 42.7129C141.196 41.5043 140.68 40.5375 139.992 39.9505C139.304 39.329 138.272 39.0527 137.033 39.0527C136.551 39.0527 136.035 39.1218 135.519 39.2599C134.694 39.4671 133.799 39.7779 132.939 40.2958C131.494 41.1245 130.152 42.264 128.81 43.7488C127.125 45.6479 125.852 47.7887 124.854 50.2403C123.856 52.6919 123.375 55.04 123.375 57.2499C123.375 59.149 123.891 60.6683 124.923 61.7732C125.955 62.8437 127.331 63.4307 129.086 63.4307C130.84 63.4307 132.354 62.8782 133.765 61.8423C134.35 61.3589 134.934 60.8409 135.554 60.1849C136.276 59.2871 136.964 58.2512 137.687 57.0081C137.515 57.7678 137.446 58.4239 137.377 58.9073C137.308 59.3907 137.308 59.805 137.308 60.1503C137.308 61.1862 137.652 62.0149 138.272 62.5674C138.925 63.1199 139.889 63.3961 141.162 63.3961C142.675 63.3961 144.086 62.8437 145.393 61.8078C146.701 60.7373 147.974 59.1145 149.281 56.87L148.111 55.9723C147.939 56.214 147.733 56.5593 147.423 57.0081M139.441 48.2721C138.96 50.1022 138.34 51.9323 137.549 53.9005C136.93 55.3507 136.276 56.5247 135.588 57.4225C135.451 57.5951 135.347 57.7678 135.21 57.9059C134.35 58.8727 133.558 59.3562 132.767 59.3562C132.216 59.3562 131.804 59.149 131.46 58.6656C131.184 58.2167 130.978 57.5952 130.978 56.801C130.978 55.4888 131.288 53.9005 131.838 52.0704C132.388 50.2058 133.18 48.3067 134.178 46.4075C134.659 45.4752 135.106 44.7501 135.519 44.1286C135.829 43.6452 136.139 43.2653 136.414 42.9546C137.068 42.264 137.756 41.9187 138.444 41.9187C138.925 41.9187 139.338 42.1259 139.613 42.5057C139.958 42.9546 140.061 43.4725 140.061 44.1631C140.061 45.1299 139.82 46.5111 139.373 48.3067" fill="#00559D"></path>
    <path d="M54.4279 40.3649C53.3614 39.5016 51.882 39.0527 50.0585 39.0527C48.992 39.0527 47.9254 39.2254 46.8589 39.5361C46.2052 39.7088 45.5171 39.985 44.829 40.2958C43.1088 41.1245 41.4918 42.2985 40.0468 43.7833C38.5674 45.3371 37.3632 47.1327 36.4687 49.2044C35.5742 51.3108 35.127 53.3135 35.127 55.1781C35.127 57.6987 35.8494 59.7015 37.3288 61.0481C38.7738 62.4293 40.8725 63.0854 43.5561 63.0854C44.7946 63.0854 45.8612 62.9127 46.8933 62.6019C47.8222 62.3257 48.6823 61.9459 49.4392 61.4279C51.0907 60.2885 52.4324 58.562 53.6366 56.1794L52.2948 55.2471C51.3315 56.7664 50.4026 57.9059 49.4736 58.562C48.6823 59.1144 47.8222 59.4252 46.8933 59.5288C46.6869 59.5979 46.4804 59.5979 46.274 59.5979C45.0699 59.5979 44.1753 59.218 43.5905 58.5275C43.0056 57.8369 42.7304 56.7319 42.696 55.2126C42.696 54.9364 42.696 54.6256 42.7648 54.2803C42.8336 53.935 42.868 53.5552 42.9712 53.1063C44.3818 52.9336 45.7236 52.6574 46.8933 52.3466C49.0952 51.7251 50.9874 50.8619 52.5012 49.7569C54.8752 48.0304 56.0793 46.0277 56.0793 43.7833C56.0793 42.333 55.5632 41.159 54.4279 40.2958M48.4415 47.9268C47.9598 48.4793 47.4438 48.9282 46.8933 49.3426C45.8268 50.1022 44.657 50.6547 43.2808 51C44.0033 48.0304 44.8978 45.6134 45.9644 43.8178C46.2396 43.2999 46.5493 42.8165 46.8589 42.4712C47.6158 41.5734 48.3039 41.1245 48.992 41.1245C49.4392 41.1245 49.7833 41.2972 50.0585 41.6425C50.2994 41.9878 50.437 42.4366 50.437 42.9891C50.437 44.7156 49.7489 46.304 48.4071 47.8578" fill="#00559D"></path>
    <path d="M32.0995 41.1594C30.689 40.0544 28.9687 39.502 26.9733 39.502C25.4251 39.502 23.7736 39.9508 22.0878 40.676C20.3676 41.5047 18.8194 42.5751 17.4088 43.9908C15.895 45.5446 14.622 47.3057 13.7275 49.3429C12.833 51.4147 12.3857 53.4519 12.3857 55.3856C12.3857 57.8372 13.1426 59.7709 14.622 61.2211C16.1358 62.6368 18.1657 63.3274 20.746 63.3274C23.1544 63.3274 25.3218 62.7404 27.2141 61.6009C29.1063 60.4614 30.7234 58.7004 32.1339 56.4215L30.4137 55.2129C29.416 56.8358 28.3839 58.0789 27.3861 58.8731C26.3196 59.6673 25.2874 60.0816 24.1865 60.0816C23.0167 60.0816 22.0534 59.6673 21.3997 58.804C20.7116 57.9408 20.3332 56.7668 20.3332 55.2129C20.3332 53.7627 20.6084 52.1398 21.0901 50.3097C21.6406 48.5487 22.2942 46.9258 23.1544 45.5101C23.8425 44.3361 24.5649 43.4729 25.3218 42.8168C26.0443 42.1607 26.7324 41.85 27.3861 41.85C27.799 41.85 28.1774 41.9536 28.3839 42.1262C28.6591 42.2989 28.7623 42.6096 28.7623 42.9549C28.7623 43.1276 28.5559 43.5074 28.2462 44.1635C27.8678 44.785 27.7302 45.372 27.7302 45.959C27.7302 46.8222 28.0054 47.4783 28.5559 47.9962C29.1408 48.5142 29.8977 48.7904 30.7922 48.7904C31.8243 48.7904 32.65 48.4451 33.3037 47.7545C33.923 47.0639 34.267 46.1662 34.267 45.0267C34.267 43.5419 33.5445 42.2298 32.1684 41.0903" fill="#00559D"></path>
    <path d="M118.386 58.6655C117.973 59.1144 117.56 59.3561 117.216 59.3561C116.941 59.3561 116.769 59.2525 116.631 59.0453C116.459 58.8382 116.391 58.5619 116.391 58.2857C116.391 58.0094 116.425 57.5951 116.597 57.0081C116.7 56.4211 116.838 55.696 117.079 54.7982L120.416 42.0222H124.097L124.51 39.7778H120.898L122.79 32.6992H120.209C118.902 34.6674 117.526 36.2903 115.978 37.4988C114.498 38.7419 112.881 39.5361 111.264 39.9504L110.783 42.0222H113.294L109.819 56.2484C109.647 56.9045 109.544 57.526 109.441 58.113C109.372 58.7 109.372 59.218 109.372 59.7359C109.372 60.9099 109.682 61.8077 110.404 62.4292C111.092 63.0508 112.124 63.3615 113.432 63.3615C115.014 63.3615 116.425 62.7745 117.732 61.6696C119.04 60.5301 120.382 58.7 121.758 56.1448L120.622 55.3507C119.556 57.0771 118.868 58.1476 118.42 58.631" fill="#00559D"></path>
    <path d="M161.392 57.9061C161.048 58.2859 160.738 58.4586 160.463 58.4586C160.222 58.4586 160.015 58.355 159.843 58.1823C159.706 57.9752 159.637 57.6989 159.637 57.3882C159.637 57.2846 159.706 57.0083 159.775 56.663C159.843 56.4213 159.878 56.2142 159.947 56.076L167.447 27.2783C165.761 27.6581 163.972 27.9344 162.08 28.2106C160.187 28.4869 158.226 28.694 156.162 28.8667V30.0752H156.575C157.297 30.0752 157.814 30.2133 158.158 30.4205C158.502 30.6277 158.639 30.973 158.639 31.4219C158.639 31.8017 158.467 32.5959 158.192 33.839C158.123 34.1842 158.054 34.426 158.02 34.5986L153.066 53.3137L152.997 53.6244C152.274 56.4213 151.896 58.1478 151.896 58.8039C151.896 60.116 152.274 61.1519 152.997 61.8425C153.719 62.5676 154.717 62.9129 156.059 62.9129C157.538 62.9129 158.949 62.3604 160.325 61.2555C161.701 60.1505 163.146 58.3895 164.66 55.9724L163.456 55.0747C162.458 56.6285 161.804 57.5608 161.426 57.9406" fill="#00559D"></path>
    <path d="M97.3647 26.1733V31.9743C83.7061 43.4381 81.4354 56.076 81.7106 64.5703C78.2358 64.5703 74.7609 64.5703 71.2516 64.5703C71.2516 64.9846 71.2517 65.399 71.1484 65.8478C75.1394 65.8478 79.0959 65.8478 83.1212 65.8478C82.8116 57.0428 85.0823 43.9906 98.7753 32.1124V25.5518C98.2592 25.7589 97.812 25.9661 97.3647 26.1388" fill="#00559D"></path>
    <path d="M75.7586 45.7519C75.9306 45.4066 76.137 45.0958 76.309 44.7505C70.7011 34.1154 62.3752 27.9 55.3223 25.8628V26.3462C62.4096 28.7633 70.4603 35.1858 75.7586 45.7519Z" fill="#00559D"></path>
    <path d="M97.3648 31.9399V26.1389V25.5864C85.048 30.2479 79.8873 38.3279 76.3092 44.7158C76.1372 45.0611 75.9308 45.4064 75.7588 45.7172C70.4605 35.1166 62.4098 28.7286 55.3225 26.3115C54.8408 26.1389 54.3591 26.0008 53.9463 25.8627V32.3542C64.7837 39.0185 70.9421 54.7294 69.7724 64.5704C70.2884 64.5704 70.8045 64.5704 71.2862 64.5704C74.7954 64.5704 78.2703 64.5704 81.7452 64.5704C81.5043 56.0761 83.775 43.4383 97.3992 31.9744" fill="#FFE82B"></path>
    <path d="M34.5078 107.94C34.5766 112.152 32.0307 116.399 26.2163 116.399H19.7139V99.7905C21.7437 99.7905 24.1865 99.7905 26.2163 99.7905C31.8931 99.7905 34.439 103.865 34.5078 107.94ZM22.8103 113.361H26.2163C29.9664 113.361 31.4802 110.598 31.4114 107.905C31.3426 105.315 29.8288 102.726 26.2163 102.726H22.8103V113.361Z" fill="#00559D"></path>
    <path d="M39.4622 111.565C39.6342 113.015 40.9072 114.051 42.9371 114.051C44.0036 114.051 45.3798 113.637 46.0679 112.946L47.9257 114.776C46.6872 116.054 44.6917 116.676 42.9027 116.676C38.8773 116.676 36.5034 114.189 36.5034 110.426C36.5034 106.662 38.9117 104.314 42.6962 104.314C46.4807 104.314 49.0267 106.731 48.5794 111.565H39.4622ZM45.7926 109.183C45.6206 107.663 44.4165 106.904 42.765 106.904C41.2168 106.904 39.9439 107.663 39.4966 109.183H45.7926Z" fill="#00559D"></path>
    <path d="M50.9534 121.268V104.659H53.6369L53.8089 106.282C54.7034 104.97 56.2861 104.417 57.5934 104.417C61.2059 104.417 63.5798 107.111 63.5798 110.529C63.5798 113.948 61.4123 116.641 57.6966 116.641C56.4581 116.641 54.6346 116.261 53.8089 114.984V121.268H50.9189H50.9534ZM60.7242 110.529C60.7242 108.699 59.4857 107.214 57.4214 107.214C55.3571 107.214 54.1186 108.699 54.1186 110.529C54.1186 112.359 55.4603 113.844 57.4214 113.844C59.3825 113.844 60.7242 112.359 60.7242 110.529Z" fill="#00559D"></path>
    <path d="M68.6373 104.694V110.806C68.6373 112.601 69.6006 113.948 71.4585 113.948C73.3163 113.948 74.4517 112.463 74.4517 110.667V104.694H77.3073V116.434H74.7269L74.5549 114.846C73.3507 116.02 72.2498 116.607 70.5984 116.607C67.8116 116.607 65.7817 114.5 65.7817 110.875V104.728H68.6717L68.6373 104.694Z" fill="#00559D"></path>
    <path d="M83.156 101.379C83.156 103.624 79.75 103.624 79.75 101.379C79.75 99.1347 83.156 99.1347 83.156 101.379ZM80.0252 104.625V116.365H82.9152V104.625H80.0252Z" fill="#00559D"></path>
    <path d="M93.271 107.801C92.4453 107.007 91.4819 106.766 90.381 106.766C89.0048 106.766 88.2479 107.18 88.2479 107.94C88.2479 108.699 88.936 109.114 90.4154 109.217C92.6173 109.355 95.4041 109.873 95.4041 112.981C95.4041 115.053 93.7182 116.814 90.381 116.814C88.5232 116.814 86.6997 116.503 84.9795 114.707L86.3901 112.636C87.2158 113.568 89.108 114.259 90.4154 114.259C91.5164 114.259 92.5141 113.706 92.5141 112.843C92.5141 111.98 91.8604 111.703 90.209 111.6C88.0071 111.427 85.3923 110.633 85.3923 107.974C85.3923 105.315 88.1791 104.314 90.3122 104.314C92.1356 104.314 93.5118 104.659 94.8536 105.868L93.2366 107.767L93.271 107.801Z" fill="#00559D"></path>
    <path d="M101.631 113.74H104.108V102.622H101.528V99.7905H107.205V113.74H109.51V116.399H101.631V113.74Z" fill="#00559D"></path>
    <path d="M122.171 111.22V108.734C121.448 109.873 119.625 110.495 118.352 110.495C115.015 110.495 111.505 109.079 111.505 104.97C111.505 101.275 115.015 99.4453 118.352 99.4453C121.689 99.4453 125.267 101.275 125.267 105.005V111.185C125.267 114.88 121.861 116.607 118.455 116.607C114.877 116.607 111.574 115.191 111.574 111.703H114.705C114.705 113.188 116.632 113.913 118.421 113.913C120.279 113.913 122.171 112.912 122.171 111.116V111.22ZM114.602 104.936C114.602 106.766 116.253 107.732 118.352 107.732C120.451 107.732 122.205 106.766 122.171 104.936C122.171 103.105 120.382 102.242 118.352 102.242C116.322 102.242 114.602 103.105 114.602 104.936Z" fill="#00559D"></path>
    <path d="M138.306 111.22V108.734C137.584 109.873 135.76 110.495 134.487 110.495C131.15 110.495 127.641 109.079 127.641 104.97C127.641 101.275 131.15 99.4453 134.487 99.4453C137.824 99.4453 141.402 101.275 141.402 105.005V111.185C141.402 114.88 137.996 116.607 134.59 116.607C131.012 116.607 127.709 115.191 127.709 111.703H130.84C130.84 113.188 132.767 113.913 134.556 113.913C136.414 113.913 138.306 112.912 138.306 111.116V111.22ZM130.737 104.936C130.737 106.766 132.388 107.732 134.487 107.732C136.586 107.732 138.34 106.766 138.306 104.936C138.306 103.105 136.517 102.242 134.487 102.242C132.457 102.242 130.737 103.105 130.737 104.936Z" fill="#00559D"></path>
    <path d="M146.082 107.802C144.671 107.042 143.983 105.799 143.983 104.521C143.983 101.172 147.045 99.48 150.657 99.48C154.27 99.48 157.435 101.206 157.435 104.521C157.435 105.661 156.781 107.042 155.302 107.664C157.022 108.354 157.779 110.081 157.814 111.358C157.882 115.225 154.339 116.779 150.657 116.745C147.045 116.745 143.467 115.26 143.536 111.358C143.536 110.081 144.361 108.492 146.082 107.802ZM146.804 111.427C146.804 112.705 148.146 113.913 150.692 113.913C153.238 113.913 154.579 112.739 154.579 111.427C154.579 109.804 152.79 109.045 150.692 109.045C148.765 109.045 146.838 109.77 146.804 111.427ZM150.692 106.766C152.618 106.766 154.132 105.902 154.201 104.452C154.235 103.037 152.79 102.104 150.692 102.104C148.352 102.104 147.183 103.313 147.217 104.452C147.251 105.902 148.903 106.766 150.726 106.766H150.692Z" fill="#00559D"></path>
  </g>
  <defs>
    <clipPath id="clip0_3077_10469">
      <rect width="182" height="127" fill="white"></rect>
    </clipPath>
  </defs>
</svg>
