<svg xmlns="http://www.w3.org/2000/svg" width="849" height="449" viewBox="0 0 849 449" version="1.1"><path d="" stroke="none" fill="#0c246c" fill-rule="evenodd"/><path d="M 338.721 3.560 C 319.141 6.607, 300.473 12.734, 280.979 22.510 C 265.030 30.509, 255.956 36.864, 245.425 47.411 C 218.831 74.044, 204.055 114.998, 204.009 162.201 C 203.997 174.334, 202.543 180.365, 198.891 183.438 C 195.361 186.408, 190.167 187.987, 183.899 187.994 C 171.499 188.009, 165 194.276, 165 206.216 C 165 213.679, 167.143 218.435, 171.999 221.750 C 174.822 223.677, 176.604 224, 184.398 224.002 C 194.960 224.003, 199.370 225.661, 202.294 230.726 C 204.053 233.774, 204.187 238.259, 204.705 311.726 C 205.195 381.236, 205.077 390.501, 203.598 398.918 C 201.591 410.333, 198.469 416.448, 191.759 422.106 C 186.161 426.826, 183.009 431.396, 183.004 434.800 C 182.997 438.840, 185.800 442.725, 190.288 444.898 C 194.565 446.968, 195.619 447, 259.667 447 C 305.485 447, 325.706 446.665, 328.101 445.866 C 333.624 444.023, 338.003 439.234, 337.985 435.054 C 337.966 430.618, 337.886 430.498, 328.807 421.126 C 316.664 408.593, 317.655 416.933, 317.033 322 C 316.655 264.200, 316.822 239.115, 317.607 235.737 C 318.931 230.039, 321.140 227.342, 326.500 224.881 C 330.055 223.248, 333.427 223.041, 356.800 223.022 C 386.510 222.997, 386.974 222.900, 391.011 215.848 C 393.127 212.152, 393.500 210.226, 393.500 203 C 393.500 193.119, 391.501 187.887, 386.580 184.886 C 383.757 183.164, 381.119 183.007, 355 183.002 C 315.403 182.995, 316.650 183.836, 314.791 155.886 C 312.891 127.337, 315.868 79.791, 320.459 65.332 C 324.940 51.221, 329.980 45.650, 339.436 44.354 L 344.131 43.710 350.324 50.105 C 354.414 54.328, 358.212 59.721, 361.508 65.984 C 369.678 81.507, 380.435 90.663, 396.293 95.592 C 403.438 97.812, 408.506 96.762, 416.612 91.382 C 431.865 81.258, 440.760 63.087, 439.789 44.038 C 439.252 33.495, 436.415 27.357, 428.997 20.687 C 421.121 13.606, 404.279 6.299, 389.162 3.405 C 379.794 1.611, 350.668 1.701, 338.721 3.560 M 76.500 26.648 C 60.207 30.034, 49.113 35.797, 38.383 46.445 C 29.659 55.103, 25.120 62.601, 22.489 72.703 C 16.020 97.539, 30.706 121.858, 57.500 130.678 C 68.562 134.320, 85.653 134.527, 97.455 131.162 C 142.305 118.374, 160.480 71.132, 131.575 42.478 C 120.443 31.442, 105.722 25.903, 88.090 26.116 C 82.816 26.180, 77.600 26.419, 76.500 26.648 M 760 28.047 C 735.976 34.250, 716.941 51.773, 711.489 72.703 C 704.299 100.308, 722.735 126.291, 753.965 132.567 C 784.459 138.695, 817.849 122.459, 830.039 95.575 C 843.005 66.977, 826.815 36.265, 794.404 27.975 C 784.275 25.385, 770.196 25.414, 760 28.047 M 609.764 142.544 C 592.085 147.396, 574.492 155.876, 555.534 168.685 C 546.909 174.512, 543.920 176.031, 541.534 175.797 L 538.500 175.500 537.942 164.500 C 537.097 147.866, 534.260 143.806, 523.039 143.172 C 513.994 142.661, 507.520 145.567, 491.639 157.266 C 470.225 173.041, 452.958 182.655, 432.148 190.392 C 416.353 196.265, 411.011 201.294, 411.004 210.300 C 410.999 216.922, 412.913 220.047, 420.855 226.385 C 432.019 235.292, 431.342 231.557, 432.287 289.500 C 433.177 344.086, 432.659 390.648, 431.073 398.500 C 428.231 412.573, 426.975 415.085, 418.775 423.084 C 411.615 430.068, 411 430.987, 411 434.699 C 411 439.527, 413.868 443.629, 418.636 445.621 C 423.508 447.657, 545.492 447.657, 550.364 445.621 C 555.435 443.502, 558 439.573, 558 433.924 C 558 429.224, 557.865 429.013, 551.950 424.462 C 542.980 417.559, 539.572 411.359, 537.476 398.131 C 537.095 395.727, 536.755 359.727, 536.719 318.131 C 536.669 258.901, 536.940 241.307, 537.970 237 C 541.081 223.988, 547.101 215.822, 554.620 214.411 C 562.215 212.987, 573.049 218.483, 587.500 231.090 C 600.343 242.295, 611.768 246.542, 626.935 245.750 C 656.883 244.185, 681.461 222.464, 683.617 195.658 C 684.810 180.819, 679.649 166.441, 669.555 156.482 C 654.733 141.857, 631.771 136.504, 609.764 142.544 M 107 144.346 C 105.075 145.038, 98.775 148.768, 93 152.636 C 73.619 165.614, 51.729 177.553, 35.484 184.006 C 22.524 189.155, 10.105 195.895, 5.980 200.020 C 2.636 203.364, 2 204.654, 2 208.096 C 2 213.894, 4.593 217.610, 11.500 221.708 C 23.318 228.721, 24.904 230.106, 27.739 235.879 L 30.500 241.500 30.813 275.500 C 30.985 294.200, 30.680 330.230, 30.136 355.566 C 28.936 411.454, 29.482 408.790, 16.517 422.039 C 7.383 431.373, 6.571 433.336, 9.499 438.998 C 10.323 440.592, 12.503 443.045, 14.343 444.448 L 17.689 447 79.295 447 C 119.567 447, 142.642 446.627, 145.929 445.922 C 152.967 444.412, 157 440.483, 157 435.134 C 157 431.455, 156.335 430.386, 149.952 423.810 C 139.952 413.509, 137.050 407.189, 135.957 393.338 C 134.960 380.692, 134.272 233.008, 134.996 187 L 135.492 155.500 132.991 151 C 129.710 145.098, 125.473 142.990, 117 143.045 C 113.425 143.069, 108.925 143.654, 107 144.346 M 797 144.882 C 789.454 147.317, 786.010 149.219, 775 157.028 C 757.411 169.504, 737.717 179.698, 714.298 188.447 C 705.060 191.899, 695.546 198.056, 693.001 202.230 C 690.671 206.052, 690.412 211.962, 692.406 215.818 C 693.283 217.514, 696.964 220.306, 702.192 223.240 C 711.714 228.585, 715.161 231.776, 717.595 237.500 C 719.153 241.164, 719.279 247.962, 719.090 318.500 C 718.868 401.537, 718.678 404.827, 713.596 413.359 C 712.239 415.637, 708.212 420.083, 704.647 423.239 C 696.617 430.347, 695.720 433.140, 699.431 439.473 C 704.176 447.570, 698.815 447, 770.255 447 C 840.095 447, 838.166 447.157, 843.297 441.059 C 847.899 435.590, 846.542 430.520, 838.492 423.100 C 832.461 417.540, 828.427 411.100, 825.903 403 C 823.909 396.605, 823.880 394.540, 824.105 275 C 824.360 139.823, 824.827 149.304, 817.701 144.960 C 813.611 142.466, 804.594 142.432, 797 144.882" stroke="none" fill="#0c1c6c" fill-rule="evenodd"/></svg>